<svg xmlns="http://www.w3.org/2000/svg" xmlns:xlink="http://www.w3.org/1999/xlink" width="978" zoomAndPan="magnify" viewBox="0 0 733.5 325.499995" height="434" preserveAspectRatio="xMidYMid meet" version="1.2"><defs><clipPath id="12474fa3d7"><path d="M 38.277344 0 L 220 0 L 220 232 L 38.277344 232 Z M 38.277344 0 "/></clipPath></defs><g id="43de9e008e"><path style=" stroke:none;fill-rule:nonzero;fill:#2e2e2e;fill-opacity:1;" d="M 396.261719 0 C 418.445312 0 438.382812 5.25 456.09375 15.746094 C 473.789062 26.246094 487.679688 40.992188 497.769531 59.972656 L 453.722656 90.136719 C 439.386719 65.734375 420.117188 53.539062 395.910156 53.539062 C 378.203125 53.539062 363.695312 59.300781 352.386719 70.835938 C 341.066406 82.347656 335.421875 97.492188 335.421875 116.234375 C 335.421875 135 341.011719 150.007812 352.226562 161.300781 C 363.421875 172.609375 377.984375 178.246094 395.921875 178.246094 C 420.128906 178.246094 439.398438 166.0625 453.734375 141.660156 L 497.769531 171.8125 C 487.691406 190.792969 473.800781 205.527344 456.09375 216.039062 C 438.382812 226.535156 418.332031 231.808594 395.921875 231.808594 C 362.304688 231.808594 333.960938 220.742188 310.878906 198.605469 C 287.796875 176.46875 276.25 148.914062 276.25 115.925781 C 276.25 83.179688 287.855469 55.667969 311.039062 33.417969 C 334.234375 11.125 362.648438 0 396.261719 0 "/><path style=" stroke:none;fill-rule:nonzero;fill:#ce2823;fill-opacity:1;" d="M 660.03125 170.378906 C 643.207031 170.378906 629.566406 184.121094 629.566406 201.074219 C 629.566406 218.03125 643.195312 231.773438 660.03125 231.773438 C 676.855469 231.773438 690.480469 218.03125 690.480469 201.074219 C 690.480469 184.121094 676.847656 170.378906 660.03125 170.378906 "/><path style=" stroke:none;fill-rule:nonzero;fill:#2e2e2e;fill-opacity:1;" d="M 516.640625 0 L 515.945312 231.582031 L 615.503906 231.613281 L 615.503906 179.75 L 574.453125 179.75 L 574.453125 0 Z M 516.640625 0 "/><path style=" stroke:none;fill-rule:nonzero;fill:#2e2e2e;fill-opacity:1;" d="M 235.667969 0 L 198.191406 93.039062 L 228.628906 164.546875 L 301.199219 0 Z M 235.667969 0 "/><g clip-rule="nonzero" clip-path="url(#12474fa3d7)"><path style=" stroke:none;fill-rule:nonzero;fill:#ce2823;fill-opacity:1;" d="M 38.996094 0 L 38.996094 55.179688 L 102.160156 55.179688 L 166.703125 200.917969 L 180.367188 231.773438 L 198.851562 231.773438 L 206 215.628906 L 219.175781 185.898438 L 189.820312 113.773438 L 189.785156 113.832031 L 144.042969 0 Z M 38.996094 0 "/></g><g style="fill:#2e2e2e;fill-opacity:1;"><g transform="translate(35.630635, 301.501638)"><path style="stroke:none" d="M 11.90625 0 L 0.390625 -29.984375 L 7.703125 -29.984375 L 11.6875 -19.3125 L 15.296875 -9.8125 L 22.828125 -29.984375 L 30.109375 -29.984375 L 18.59375 0 Z M 11.90625 0 "/></g></g><g style="fill:#2e2e2e;fill-opacity:1;"><g transform="translate(63.422953, 301.501638)"><path style="stroke:none" d="M 0.390625 0 L 12.296875 -29.984375 L 18.96875 -29.984375 L 30.875 0 L 23.59375 0 L 21.578125 -5.1875 L 9.671875 -5.1875 L 7.671875 0 Z M 11.4375 -10.53125 L 19.875 -10.53125 L 15.625 -21.5 Z M 11.4375 -10.53125 "/></g></g><g style="fill:#2e2e2e;fill-opacity:1;"><g transform="translate(94.683873, 301.501638)"><path style="stroke:none" d="M 3.59375 0 L 3.59375 -29.984375 L 10.40625 -29.984375 L 10.40625 -6.375 L 23.515625 -6.375 L 23.515625 0 Z M 3.59375 0 "/></g></g><g style="fill:#2e2e2e;fill-opacity:1;"><g transform="translate(117.380179, 301.501638)"><path style="stroke:none" d="M 15.84375 0.59375 C 13.25 0.59375 11.015625 0.0703125 9.140625 -0.96875 C 7.273438 -2.007812 5.832031 -3.492188 4.8125 -5.421875 C 3.800781 -7.347656 3.296875 -9.648438 3.296875 -12.328125 L 3.296875 -29.984375 L 10.109375 -29.984375 L 10.109375 -12.8125 C 10.109375 -8.1875 12.019531 -5.875 15.84375 -5.875 C 19.664062 -5.875 21.578125 -8.1875 21.578125 -12.8125 L 21.578125 -29.984375 L 28.390625 -29.984375 L 28.390625 -12.328125 C 28.390625 -9.648438 27.882812 -7.347656 26.875 -5.421875 C 25.863281 -3.492188 24.421875 -2.007812 22.546875 -0.96875 C 20.679688 0.0703125 18.445312 0.59375 15.84375 0.59375 Z M 15.84375 0.59375 "/></g></g><g style="fill:#2e2e2e;fill-opacity:1;"><g transform="translate(149.069364, 301.501638)"><path style="stroke:none" d="M 3.59375 0 L 3.59375 -29.984375 L 23.296875 -29.984375 L 23.296875 -24.234375 L 10.359375 -24.234375 L 10.359375 -18.03125 L 22.140625 -18.03125 L 22.140625 -12.328125 L 10.359375 -12.328125 L 10.359375 -5.78125 L 23.765625 -5.78125 L 23.765625 0 Z M 3.59375 0 "/></g></g><g style="fill:#2e2e2e;fill-opacity:1;"><g transform="translate(175.02022, 301.501638)"><path style="stroke:none" d=""/></g></g><g style="fill:#2e2e2e;fill-opacity:1;"><g transform="translate(184.0131, 301.501638)"><path style="stroke:none" d="M 17.34375 0.59375 C 14.320312 0.59375 11.640625 -0.0664062 9.296875 -1.390625 C 6.953125 -2.722656 5.125 -4.554688 3.8125 -6.890625 C 2.5 -9.234375 1.84375 -11.929688 1.84375 -14.984375 C 1.84375 -18.046875 2.5 -20.742188 3.8125 -23.078125 C 5.125 -25.421875 6.941406 -27.253906 9.265625 -28.578125 C 11.597656 -29.910156 14.273438 -30.578125 17.296875 -30.578125 C 19.835938 -30.578125 22.164062 -30.09375 24.28125 -29.125 C 26.394531 -28.15625 28.171875 -26.785156 29.609375 -25.015625 C 31.054688 -23.242188 32.066406 -21.160156 32.640625 -18.765625 L 25.609375 -18.765625 C 25.035156 -20.421875 24.019531 -21.722656 22.5625 -22.671875 C 21.113281 -23.628906 19.429688 -24.109375 17.515625 -24.109375 C 15.828125 -24.109375 14.316406 -23.722656 12.984375 -22.953125 C 11.660156 -22.179688 10.628906 -21.109375 9.890625 -19.734375 C 9.148438 -18.367188 8.78125 -16.785156 8.78125 -14.984375 C 8.78125 -13.191406 9.148438 -11.609375 9.890625 -10.234375 C 10.628906 -8.867188 11.65625 -7.800781 12.96875 -7.03125 C 14.289062 -6.257812 15.789062 -5.875 17.46875 -5.875 C 19.4375 -5.875 21.164062 -6.378906 22.65625 -7.390625 C 24.144531 -8.398438 25.203125 -9.765625 25.828125 -11.484375 L 32.84375 -11.484375 C 32.363281 -9.054688 31.394531 -6.929688 29.9375 -5.109375 C 28.476562 -3.296875 26.671875 -1.890625 24.515625 -0.890625 C 22.359375 0.0976562 19.96875 0.59375 17.34375 0.59375 Z M 17.34375 0.59375 "/></g></g><g style="fill:#2e2e2e;fill-opacity:1;"><g transform="translate(218.571424, 301.501638)"><path style="stroke:none" d="M 3.59375 0 L 3.59375 -29.984375 L 16.40625 -29.984375 C 18.6875 -29.984375 20.671875 -29.566406 22.359375 -28.734375 C 24.046875 -27.910156 25.34375 -26.726562 26.25 -25.1875 C 27.164062 -23.644531 27.625 -21.800781 27.625 -19.65625 C 27.625 -17.457031 27.125 -15.566406 26.125 -13.984375 C 25.125 -12.398438 23.722656 -11.207031 21.921875 -10.40625 L 28.140625 0 L 20.25 0 L 14.90625 -9.34375 L 10.40625 -9.34375 L 10.40625 0 Z M 10.328125 -15.078125 L 15.5 -15.078125 C 17.1875 -15.078125 18.476562 -15.46875 19.375 -16.25 C 20.28125 -17.039062 20.734375 -18.160156 20.734375 -19.609375 C 20.734375 -21.066406 20.28125 -22.1875 19.375 -22.96875 C 18.476562 -23.757812 17.1875 -24.15625 15.5 -24.15625 L 10.328125 -24.15625 Z M 10.328125 -15.078125 "/></g></g><g style="fill:#2e2e2e;fill-opacity:1;"><g transform="translate(248.718961, 301.501638)"><path style="stroke:none" d="M 3.59375 0 L 3.59375 -29.984375 L 23.296875 -29.984375 L 23.296875 -24.234375 L 10.359375 -24.234375 L 10.359375 -18.03125 L 22.140625 -18.03125 L 22.140625 -12.328125 L 10.359375 -12.328125 L 10.359375 -5.78125 L 23.765625 -5.78125 L 23.765625 0 Z M 3.59375 0 "/></g></g><g style="fill:#2e2e2e;fill-opacity:1;"><g transform="translate(274.669817, 301.501638)"><path style="stroke:none" d="M 0.390625 0 L 12.296875 -29.984375 L 18.96875 -29.984375 L 30.875 0 L 23.59375 0 L 21.578125 -5.1875 L 9.671875 -5.1875 L 7.671875 0 Z M 11.4375 -10.53125 L 19.875 -10.53125 L 15.625 -21.5 Z M 11.4375 -10.53125 "/></g></g><g style="fill:#2e2e2e;fill-opacity:1;"><g transform="translate(302.676186, 301.501638)"><path style="stroke:none" d="M 10.796875 0 L 10.796875 -23.59375 L 1.28125 -23.59375 L 1.28125 -29.984375 L 27.109375 -29.984375 L 27.109375 -23.59375 L 17.609375 -23.59375 L 17.609375 0 Z M 10.796875 0 "/></g></g><g style="fill:#2e2e2e;fill-opacity:1;"><g transform="translate(331.067968, 301.501638)"><path style="stroke:none" d="M 3.59375 0 L 3.59375 -29.984375 L 10.40625 -29.984375 L 10.40625 0 Z M 3.59375 0 "/></g></g><g style="fill:#2e2e2e;fill-opacity:1;"><g transform="translate(345.071153, 301.501638)"><path style="stroke:none" d="M 17.8125 0.59375 C 14.695312 0.59375 11.929688 -0.0664062 9.515625 -1.390625 C 7.109375 -2.722656 5.226562 -4.554688 3.875 -6.890625 C 2.519531 -9.234375 1.84375 -11.929688 1.84375 -14.984375 C 1.84375 -18.046875 2.519531 -20.742188 3.875 -23.078125 C 5.226562 -25.421875 7.109375 -27.253906 9.515625 -28.578125 C 11.929688 -29.910156 14.695312 -30.578125 17.8125 -30.578125 C 20.957031 -30.578125 23.726562 -29.910156 26.125 -28.578125 C 28.519531 -27.253906 30.398438 -25.421875 31.765625 -23.078125 C 33.140625 -20.742188 33.828125 -18.046875 33.828125 -14.984375 C 33.828125 -11.929688 33.140625 -9.234375 31.765625 -6.890625 C 30.398438 -4.554688 28.519531 -2.722656 26.125 -1.390625 C 23.726562 -0.0664062 20.957031 0.59375 17.8125 0.59375 Z M 8.78125 -14.984375 C 8.78125 -13.191406 9.164062 -11.609375 9.9375 -10.234375 C 10.707031 -8.867188 11.769531 -7.800781 13.125 -7.03125 C 14.476562 -6.257812 16.039062 -5.875 17.8125 -5.875 C 19.613281 -5.875 21.191406 -6.257812 22.546875 -7.03125 C 23.898438 -7.800781 24.957031 -8.867188 25.71875 -10.234375 C 26.476562 -11.609375 26.859375 -13.191406 26.859375 -14.984375 C 26.859375 -16.785156 26.476562 -18.367188 25.71875 -19.734375 C 24.957031 -21.109375 23.898438 -22.179688 22.546875 -22.953125 C 21.191406 -23.722656 19.613281 -24.109375 17.8125 -24.109375 C 16.039062 -24.109375 14.476562 -23.722656 13.125 -22.953125 C 11.769531 -22.179688 10.707031 -21.109375 9.9375 -19.734375 C 9.164062 -18.367188 8.78125 -16.785156 8.78125 -14.984375 Z M 8.78125 -14.984375 "/></g></g><g style="fill:#2e2e2e;fill-opacity:1;"><g transform="translate(380.742859, 301.501638)"><path style="stroke:none" d="M 3.59375 0 L 3.59375 -29.984375 L 9.375 -29.984375 L 22.609375 -11.734375 L 22.609375 -29.984375 L 29.375 -29.984375 L 29.375 0 L 23.59375 0 L 10.359375 -18.375 L 10.359375 0 Z M 3.59375 0 "/></g></g><g style="fill:#2e2e2e;fill-opacity:1;"><g transform="translate(413.716734, 301.501638)"><path style="stroke:none" d=""/></g></g><g style="fill:#2e2e2e;fill-opacity:1;"><g transform="translate(423.780198, 301.501638)"><path style="stroke:none" d="M 3.59375 0 L 3.59375 -29.984375 L 10.40625 -29.984375 L 10.40625 -6.375 L 23.515625 -6.375 L 23.515625 0 Z M 3.59375 0 "/></g></g><g style="fill:#2e2e2e;fill-opacity:1;"><g transform="translate(448.446364, 301.501638)"><path style="stroke:none" d="M 3.59375 0 L 3.59375 -29.984375 L 23.296875 -29.984375 L 23.296875 -24.234375 L 10.359375 -24.234375 L 10.359375 -18.03125 L 22.140625 -18.03125 L 22.140625 -12.328125 L 10.359375 -12.328125 L 10.359375 -5.78125 L 23.765625 -5.78125 L 23.765625 0 Z M 3.59375 0 "/></g></g><g style="fill:#2e2e2e;fill-opacity:1;"><g transform="translate(474.39722, 301.501638)"><path style="stroke:none" d="M 0.390625 0 L 12.296875 -29.984375 L 18.96875 -29.984375 L 30.875 0 L 23.59375 0 L 21.578125 -5.1875 L 9.671875 -5.1875 L 7.671875 0 Z M 11.4375 -10.53125 L 19.875 -10.53125 L 15.625 -21.5 Z M 11.4375 -10.53125 "/></g></g><g style="fill:#2e2e2e;fill-opacity:1;"><g transform="translate(505.65814, 301.501638)"><path style="stroke:none" d="M 3.59375 0 L 3.59375 -29.984375 L 15.46875 -29.984375 C 18.632812 -29.984375 21.398438 -29.351562 23.765625 -28.09375 C 26.140625 -26.832031 27.984375 -25.070312 29.296875 -22.8125 C 30.609375 -20.5625 31.265625 -17.953125 31.265625 -14.984375 C 31.265625 -11.992188 30.609375 -9.375 29.296875 -7.125 C 27.984375 -4.882812 26.140625 -3.132812 23.765625 -1.875 C 21.398438 -0.625 18.632812 0 15.46875 0 Z M 10.40625 -6.25 L 15.328125 -6.25 C 17.097656 -6.25 18.65625 -6.613281 20 -7.34375 C 21.34375 -8.070312 22.390625 -9.09375 23.140625 -10.40625 C 23.898438 -11.71875 24.28125 -13.242188 24.28125 -14.984375 C 24.28125 -16.753906 23.898438 -18.289062 23.140625 -19.59375 C 22.390625 -20.894531 21.332031 -21.910156 19.96875 -22.640625 C 18.613281 -23.367188 17.039062 -23.734375 15.25 -23.734375 L 10.40625 -23.734375 Z M 10.40625 -6.25 "/></g></g><g style="fill:#2e2e2e;fill-opacity:1;"><g transform="translate(538.717668, 301.501638)"><path style="stroke:none" d="M 3.59375 0 L 3.59375 -29.984375 L 23.296875 -29.984375 L 23.296875 -24.234375 L 10.359375 -24.234375 L 10.359375 -18.03125 L 22.140625 -18.03125 L 22.140625 -12.328125 L 10.359375 -12.328125 L 10.359375 -5.78125 L 23.765625 -5.78125 L 23.765625 0 Z M 3.59375 0 "/></g></g><g style="fill:#2e2e2e;fill-opacity:1;"><g transform="translate(564.668524, 301.501638)"><path style="stroke:none" d="M 3.59375 0 L 3.59375 -29.984375 L 16.40625 -29.984375 C 18.6875 -29.984375 20.671875 -29.566406 22.359375 -28.734375 C 24.046875 -27.910156 25.34375 -26.726562 26.25 -25.1875 C 27.164062 -23.644531 27.625 -21.800781 27.625 -19.65625 C 27.625 -17.457031 27.125 -15.566406 26.125 -13.984375 C 25.125 -12.398438 23.722656 -11.207031 21.921875 -10.40625 L 28.140625 0 L 20.25 0 L 14.90625 -9.34375 L 10.40625 -9.34375 L 10.40625 0 Z M 10.328125 -15.078125 L 15.5 -15.078125 C 17.1875 -15.078125 18.476562 -15.46875 19.375 -16.25 C 20.28125 -17.039062 20.734375 -18.160156 20.734375 -19.609375 C 20.734375 -21.066406 20.28125 -22.1875 19.375 -22.96875 C 18.476562 -23.757812 17.1875 -24.15625 15.5 -24.15625 L 10.328125 -24.15625 Z M 10.328125 -15.078125 "/></g></g><g style="fill:#2e2e2e;fill-opacity:1;"><g transform="translate(594.473502, 301.501638)"><path style="stroke:none" d="M 14.046875 0.59375 C 11.535156 0.59375 9.375 0.179688 7.5625 -0.640625 C 5.75 -1.472656 4.347656 -2.648438 3.359375 -4.171875 C 2.378906 -5.703125 1.890625 -7.492188 1.890625 -9.546875 L 8.5625 -9.546875 C 8.5625 -8.117188 9.050781 -7.003906 10.03125 -6.203125 C 11.019531 -5.410156 12.34375 -5.015625 14 -5.015625 C 15.425781 -5.015625 16.550781 -5.289062 17.375 -5.84375 C 18.207031 -6.40625 18.625 -7.1875 18.625 -8.1875 C 18.625 -9.238281 18.125 -10.09375 17.125 -10.75 C 16.125 -11.40625 14.570312 -11.960938 12.46875 -12.421875 C 8.945312 -13.160156 6.34375 -14.285156 4.65625 -15.796875 C 2.976562 -17.316406 2.140625 -19.289062 2.140625 -21.71875 C 2.140625 -24.457031 3.140625 -26.617188 5.140625 -28.203125 C 7.140625 -29.785156 9.863281 -30.578125 13.3125 -30.578125 C 15.6875 -30.578125 17.742188 -30.171875 19.484375 -29.359375 C 21.222656 -28.546875 22.570312 -27.40625 23.53125 -25.9375 C 24.488281 -24.46875 24.96875 -22.71875 24.96875 -20.6875 L 18.421875 -20.6875 C 18.421875 -22.03125 17.976562 -23.085938 17.09375 -23.859375 C 16.207031 -24.628906 14.976562 -25.015625 13.40625 -25.015625 C 11.976562 -25.015625 10.847656 -24.734375 10.015625 -24.171875 C 9.191406 -23.617188 8.78125 -22.84375 8.78125 -21.84375 C 8.78125 -20.925781 9.234375 -20.15625 10.140625 -19.53125 C 11.054688 -18.90625 12.660156 -18.320312 14.953125 -17.78125 C 18.691406 -16.894531 21.390625 -15.707031 23.046875 -14.21875 C 24.703125 -12.726562 25.53125 -10.800781 25.53125 -8.4375 C 25.53125 -5.613281 24.507812 -3.398438 22.46875 -1.796875 C 20.425781 -0.203125 17.617188 0.59375 14.046875 0.59375 Z M 14.046875 0.59375 "/></g></g><g style="fill:#2e2e2e;fill-opacity:1;"><g transform="translate(621.923153, 301.501638)"><path style="stroke:none" d="M 22.140625 0 L 22.140625 -12.078125 L 10.40625 -12.078125 L 10.40625 0 L 3.59375 0 L 3.59375 -29.984375 L 10.40625 -29.984375 L 10.40625 -18.453125 L 22.140625 -18.453125 L 22.140625 -29.984375 L 28.953125 -29.984375 L 28.953125 0 Z M 22.140625 0 "/></g></g><g style="fill:#2e2e2e;fill-opacity:1;"><g transform="translate(654.468817, 301.501638)"><path style="stroke:none" d="M 3.59375 0 L 3.59375 -29.984375 L 10.40625 -29.984375 L 10.40625 0 Z M 3.59375 0 "/></g></g><g style="fill:#2e2e2e;fill-opacity:1;"><g transform="translate(668.472001, 301.501638)"><path style="stroke:none" d="M 3.59375 0 L 3.59375 -29.984375 L 15.328125 -29.984375 C 17.753906 -29.984375 19.851562 -29.539062 21.625 -28.65625 C 23.394531 -27.769531 24.769531 -26.507812 25.75 -24.875 C 26.738281 -23.25 27.234375 -21.335938 27.234375 -19.140625 C 27.234375 -16.972656 26.738281 -15.070312 25.75 -13.4375 C 24.769531 -11.8125 23.394531 -10.554688 21.625 -9.671875 C 19.851562 -8.785156 17.753906 -8.34375 15.328125 -8.34375 L 10.40625 -8.34375 L 10.40625 0 Z M 10.359375 -14.21875 L 14.78125 -14.21875 C 16.550781 -14.21875 17.910156 -14.640625 18.859375 -15.484375 C 19.816406 -16.328125 20.296875 -17.53125 20.296875 -19.09375 C 20.296875 -20.664062 19.816406 -21.878906 18.859375 -22.734375 C 17.910156 -23.597656 16.550781 -24.03125 14.78125 -24.03125 L 10.359375 -24.03125 Z M 10.359375 -14.21875 "/></g></g></g></svg>